<?xml version="1.0" encoding="utf-8"?>
<!-- Generator: Adobe Illustrator 22.0.1, SVG Export Plug-In . SVG Version: 6.00 Build 0)  -->
<svg version="1.1"
	 id="svg8" inkscape:version="0.92.2 5c3e80d, 2017-08-06" sodipodi:docname="CameraButtonStand.svg" xmlns:cc="http://creativecommons.org/ns#" xmlns:dc="http://purl.org/dc/elements/1.1/" xmlns:inkscape="http://www.inkscape.org/namespaces/inkscape" xmlns:rdf="http://www.w3.org/1999/02/22-rdf-syntax-ns#" xmlns:sodipodi="http://sodipodi.sourceforge.net/DTD/sodipodi-0.dtd" xmlns:svg="http://www.w3.org/2000/svg"
	 xmlns="http://www.w3.org/2000/svg" xmlns:xlink="http://www.w3.org/1999/xlink" x="0px" y="0px" viewBox="0 0 595.3 841.9"
	 style="enable-background:new 0 0 595.3 841.9;" xml:space="preserve">
<style type="text/css">
	.st0{fill:none;stroke:#000000;stroke-width:1.000000e-03;stroke-linecap:round;stroke-linejoin:round;}
</style>
<sodipodi:namedview  bordercolor="#666666" borderopacity="1.0" id="base" inkscape:current-layer="layer1" inkscape:cx="241.00314" inkscape:cy="398.03499" inkscape:document-units="mm" inkscape:guide-bbox="true" inkscape:object-paths="false" inkscape:pageopacity="0.0" inkscape:pageshadow="2" inkscape:snap-bbox="true" inkscape:snap-bbox-midpoints="true" inkscape:snap-intersection-paths="true" inkscape:snap-smooth-nodes="true" inkscape:window-height="756" inkscape:window-maximized="1" inkscape:window-width="1276" inkscape:window-x="4" inkscape:window-y="22" inkscape:zoom="1.4133192" pagecolor="#ffffff" showgrid="true" showguides="true">
	<inkscape:grid  empspacing="4" id="grid4508" spacingx="1" spacingy="1" type="xygrid" units="mm"></inkscape:grid>
	<sodipodi:guide  id="guide4543" inkscape:locked="false" orientation="0,1" position="52,292"></sodipodi:guide>
	<sodipodi:guide  id="guide4545" inkscape:locked="false" orientation="0,1" position="28,244"></sodipodi:guide>
	<sodipodi:guide  id="guide4547" inkscape:locked="false" orientation="0,1" position="230,209"></sodipodi:guide>
	<sodipodi:guide  id="guide4549" inkscape:locked="false" orientation="1,0" position="222.06164,285.75001"></sodipodi:guide>
	<sodipodi:guide  id="guide4553" inkscape:locked="false" orientation="1,0" position="218.06164,264.75538"></sodipodi:guide>
	<sodipodi:guide  id="guide4594" inkscape:locked="false" orientation="1,0" position="178,217"></sodipodi:guide>
	<sodipodi:guide  id="guide4626" inkscape:locked="false" orientation="0,1" position="126,225"></sodipodi:guide>
	<sodipodi:guide  id="guide4630" inkscape:locked="false" orientation="1,0" position="202.06164,164.96909"></sodipodi:guide>
	<sodipodi:guide  id="guide4724" inkscape:locked="false" orientation="1,0" position="8,240"></sodipodi:guide>
	<sodipodi:guide  id="guide4771" inkscape:locked="false" orientation="0,1" position="32.8119,181.80122"></sodipodi:guide>
	<sodipodi:guide  id="guide4775" inkscape:locked="false" orientation="0,1" position="143,197.00001"></sodipodi:guide>
	<sodipodi:guide  id="guide4796" inkscape:locked="false" orientation="1,0" position="265,199"></sodipodi:guide>
	<sodipodi:guide  id="guide4808" inkscape:locked="false" orientation="1,0" position="295.99999,201.00002"></sodipodi:guide>
	<sodipodi:guide  id="guide4554" inkscape:locked="false" orientation="1,0" position="47.999999,240.00001"></sodipodi:guide>
</sodipodi:namedview>
<g id="layer1" inkscape:groupmode="layer" inkscape:label="Layer 1">
	<g id="g887" transform="rotate(-90,113.5,117.5)">
		<path id="rect4504" inkscape:connector-curvature="0" sodipodi:nodetypes="ccccccccccccccccc" class="st0" d="M-389.8,72.1V60.8
			h150.2v11.3h28.3h40.4h98.5V60.7h22.7v238.1v18.3h-22.6v-18.3h-167.2v18.3h-150.2L-389.8,72.1z"/>
		<path id="rect4510" inkscape:connector-curvature="0" sodipodi:nodetypes="ccccccccccccccc" class="st0" d="M-83.6,128.8v113.4
			h11.3V128.8H-83.6z M-72.3,242.2v45.4H-61v-45.4L-72.3,242.2L-72.3,242.2z M-83.6,242.2h-11.3v45.4h11.3V242.2z"/>
		
			<rect id="rect4516" x="-89.4" y="100.4" transform="matrix(-2.535182e-06 -1 1 -2.535182e-06 -172.7286 39.416)" class="st0" width="45.4" height="11.3"/>
		
			<rect id="rect4520" x="-112" y="100.4" transform="matrix(-2.535182e-06 -1 1 -2.535182e-06 -195.4286 16.7616)" class="st0" width="45.4" height="11.3"/>
	</g>
	<g id="g4749" transform="rotate(90,164.65615,-64.656146)">
		<path id="rect4506" inkscape:connector-curvature="0" sodipodi:nodetypes="ccccccccccccccccccccc" class="st0" d="M297.3-206.2
			v11.3h-59.5v113.4V31.9h59.5v17.3h42.5V31.9h11.3V20.6v-45.4h11.3v-56.7v-56.7h-11.3v-45.4v-11.3h-11.3v-12.3h-42.5V-206.2z"/>
	</g>
	<g id="g4759" transform="rotate(-90,202.24272,206.24278)">
		<path id="path4564" inkscape:connector-curvature="0" sodipodi:nodetypes="cccccccccccccccccccccc" class="st0" d="M150.6,60.7V72
			h-11.3v113.4v113.4h11.3v18.6h42.5v-18.6h59.5v-11.3l18.6,0.5v-45.4l-18.6-0.5V128.8h18.6V83.4h-18.6V72.1h-59.5V60.7H150.6z"/>
	</g>
</g>
<path class="st0" d="M317.5,589.2"/>
<path class="st0" d="M204.1,589.2"/>
<rect id="rect4520_1_" x="158.8" y="589.2" class="st0" width="45.4" height="11.3"/>
</svg>
