<?xml version="1.0" encoding="UTF-8" standalone="no"?>
<svg
   xmlns:dc="http://purl.org/dc/elements/1.1/"
   xmlns:cc="http://creativecommons.org/ns#"
   xmlns:rdf="http://www.w3.org/1999/02/22-rdf-syntax-ns#"
   xmlns:svg="http://www.w3.org/2000/svg"
   xmlns="http://www.w3.org/2000/svg"
   xml:space="preserve"
   style="enable-background:new 0 0 612 792;"
   viewBox="0 0 612 792"
   y="0px"
   x="0px"
   id="Layer_1"
   version="1.1"><metadata
     id="metadata41"><rdf:RDF><cc:Work
         rdf:about=""><dc:format>image/svg+xml</dc:format><dc:type
           rdf:resource="http://purl.org/dc/dcmitype/StillImage" /><dc:title></dc:title></cc:Work></rdf:RDF></metadata><defs
     id="defs39" /><style
     id="style3"
     type="text/css">
	.st0{fill:none;stroke:#000000;stroke-width:1.000000e-03;}
	.st1{fill:none;stroke:#000000;stroke-width:1.000000e-02;}
	.st2{stroke:#000000;stroke-width:1.000000e-03;}
	.st3{fill:none;stroke:#000000;stroke-width:0.1;}
</style><g
     style="fill:none;stroke:#000000;stroke-opacity:1"
     transform="rotate(-180,159.06164,83)"
     id="g881"><path
       style="fill:none;stroke:#000000;stroke-opacity:1"
       d="   M31.3-372c67.1-57.6,134.3-115.3,201.4-172.9h11.5v8.5v19.8h11.2v167.2h-11.3l0,11.3h11.3l0,45.4h-11.3v56.7v56.7h11.3l0,45.4   h-11.3l0,11.3h11.3V44.7h-11.2v19.8V73h-11.5L31.3-99.9c0-7.1,0-14.1,0-21.2c0-11.8,0.1-12.5,0-12.8c0,0,0,0,0,0c0,0,0,0,0,0   c0,0-43.1,50.4-86.8,65.4C-100.9-53-153-73.4-184.5-97.3c-67.2-51.2-64.4-137.5-63.8-155.2c0.7-20.3,2.6-80.4,50.1-126.4   c9.9-9.6,53.8-52.2,117.7-45.1c74.8,8.4,109.7,77.7,112,82.6C31.4-351.7,31.4-361.8,31.3-372z"
       class="st0"
       id="path4562_1_" /><path
       style="fill:none;stroke:#000000;stroke-opacity:1"
       d="M-3.9-236c0,13.3-10.8,24.1-24.1,24.1c0,0,0,0,0,0   c-13.3,0-24.1-10.8-24.1-24.1c0-13.3,10.8-24.1,24.1-24.1C-14.7-260.1-3.9-249.3-3.9-236C-3.9-236-3.9-236-3.9-236z"
       class="st0"
       id="path4570" /><path
       style="fill:none;stroke:#000000;stroke-opacity:1"
       d="M214.7-236"
       class="st0"
       id="path4584_3_" /><path
       style="fill:none;stroke:#000000;stroke-opacity:1"
       d="M194.1-236"
       class="st0"
       id="path4584_2_" /><path
       style="fill:none;stroke:#0000ff;stroke-opacity:1"
       d="M31.5-122.6h224"
       class="st0"
       id="path4765" /><path
       style="fill:none;stroke:#000000;stroke-opacity:1"
       d="M238.2-122.6v2.8"
       class="st0"
       id="rect4790_3_" /><path
       style="fill:none;stroke:#000000;stroke-opacity:1"
       d="M207.3-122.6"
       class="st0"
       id="rect4790_4_" /><path
       style="fill:none;stroke:#000000;stroke-opacity:1"
       d="M195.7-122.6"
       class="st0"
       id="rect4790_2_" /><path
       style="fill:none;stroke:#000000;stroke-opacity:1"
       d="M238.2-119.8v8.5h-42.5v-11.3"
       class="st0"
       id="rect4790" /><path
       style="fill:none;stroke:#000000;stroke-opacity:1"
       d="M147.5-111.2h42.5v11.3h-42.5V-111.2z"
       class="st0"
       id="rect4792" /><path
       style="fill:none;stroke:#0000ff;stroke-opacity:1"
       d="M31.3-349.4h224"
       class="st0"
       id="path4821" /><path
       style="fill:none;stroke:#000000;stroke-opacity:1"
       d="M195.7-349.4h42.5v-11.3h-42.5V-349.4z"
       class="st0"
       id="rect4823" /><path
       style="fill:none;stroke:#000000;stroke-opacity:1"
       d="M147.5-360.7h42.5V-372h-42.5V-360.7z"
       class="st0"
       id="rect4825" /></g><line
     style="fill:none;stroke:#000000;stroke-opacity:1"
     id="line19"
     y2="504"
     x2="75.4"
     y1="504"
     x1="62"
     class="st0" /><path
     style="fill:none;stroke:#000000;stroke-opacity:1"
     id="path21"
     d="M281.1,538"
     class="st0" /><path
     style="fill:none;stroke:#000000;stroke-opacity:1"
     id="path23"
     d="M452.9,192c37.1,0.4,74.2,0.8,111.4,1.3c0.8-8.8,1.3-29.5-10.7-50.4c-5.1-8.9-21.3-48.6-45.1-49.8  c-27.3-1.4-43.1,44.3-46,49.3C450.3,163.1,451.9,183.9,452.9,192z"
     class="st0" /><path
     style="fill:none;stroke:#000000;stroke-opacity:1"
     id="path25"
     d="M281.8,192c37.1,0.4,74.2,0.8,111.4,1.3c0.8-8.8,1.3-29.5-10.7-50.4c-5.1-8.9-21.3-48.6-45.1-49.8  c-27.3-1.4-43.1,44.3-46,49.3C279.3,163.1,280.8,183.9,281.8,192z"
     class="st0" /><path
     style="fill:none;stroke:#0000ff;stroke-opacity:1"
     d="M411.4,344.8c0-13.3,10.8-24.1,24.1-24.1c0,0,0,0,0,0  c13.3,0,24.1,10.8,24.1,24.1c0,13.3-10.8,24.1-24.1,24.1C422.2,368.9,411.4,358.1,411.4,344.8C411.4,344.8,411.4,344.8,411.4,344.8z  "
     class="st1"
     id="path4570_1_" /><path
     style="fill:none;stroke:#0000ff;stroke-opacity:1"
     d="M411.4,459.1c0-13.3,10.8-24.1,24.1-24.1c0,0,0,0,0,0  c13.3,0,24.1,10.8,24.1,24.1c0,13.3-10.8,24.1-24.1,24.1C422.2,483.2,411.4,472.5,411.4,459.1C411.4,459.1,411.4,459.1,411.4,459.1z  "
     class="st1"
     id="path4570_2_" /><path
     style="fill:none;stroke:#000000;stroke-opacity:1"
     d="M297.1,668.3c-13.3,0-24.1-10.8-24.1-24.1c0,0,0,0,0,0  c0-13.3,10.8-24.1,24.1-24.1c13.3,0,24.1,10.8,24.1,24.1C321.2,657.5,310.4,668.3,297.1,668.3C297.1,668.3,297.1,668.3,297.1,668.3z  "
     class="st2"
     id="path4570_4_" /><path
     style="fill:none;stroke:#000000;stroke-opacity:1"
     d="M411.4,668.3c-13.3,0-24.1-10.8-24.1-24.1c0,0,0,0,0,0  c0-13.3,10.8-24.1,24.1-24.1c13.3,0,24.1,10.8,24.1,24.1C435.5,657.5,424.7,668.3,411.4,668.3C411.4,668.3,411.4,668.3,411.4,668.3z  "
     class="st2"
     id="path4570_3_" /><path
     style="fill:none;stroke:#000000;stroke-opacity:1"
     d="M297.1,716.5c-13.3,0-24.1-10.8-24.1-24.1c0,0,0,0,0,0  c0-13.3,10.8-24.1,24.1-24.1c13.3,0,24.1,10.8,24.1,24.1C321.2,705.7,310.4,716.5,297.1,716.5C297.1,716.5,297.1,716.5,297.1,716.5z  "
     class="st2"
     id="path4570_6_" /><path
     style="fill:none;stroke:#000000;stroke-opacity:1"
     d="M411.4,716.5c-13.3,0-24.1-10.8-24.1-24.1c0,0,0,0,0,0  c0-13.3,10.8-24.1,24.1-24.1c13.3,0,24.1,10.8,24.1,24.1C435.5,705.7,424.7,716.5,411.4,716.5C411.4,716.5,411.4,716.5,411.4,716.5z  "
     class="st2"
     id="path4570_5_" /><path
     style="fill:none;stroke:#000000;stroke-opacity:1"
     id="path33"
     d="M488.8,702.7c-0.7-11.6,6.5-19.7,12.3-19.7c7.7-0.1,15.3,13.9,11.3,20.1C509.4,707.9,498.7,709.4,488.8,702.7z"
     class="st0" /><path
     style="fill:none;stroke:#000000;stroke-opacity:1"
     id="path35"
     d="M538.9,664.1"
     class="st3" /></svg>